/* XPM */
static char * hilite_xpm[] = {
"18 18 30 1",
" 	c None",
".	c #626262",
"+	c #616161",
"@	c #848484",
"#	c #838383",
"$	c #7C7C7C",
"%	c #7B7B7B",
"&	c #757575",
"*	c #747474",
"=	c #6D6D6D",
"-	c #676767",
";	c #666666",
">	c #5F5F5F",
",	c #606060",
"'	c #5E5E5E",
")	c #595959",
"!	c #3E3E3E",
"~	c #222222",
"{	c #242424",
"]	c #252525",
"^	c #282828",
"/	c #292929",
"(	c #2D2D2D",
"_	c #2E2E2E",
":	c #313131",
"<	c #323232",
"[	c #363636",
"}	c #3A3A3A",
"|	c #4C4C4C",
"1	c #6F6F6F",
".............+++++",
"@@@@@@@@@@@#######",
"$$$$$$$$$$$$$$$$%%",
"&&&&&&&***********",
"==================",
"------------;;;;;;",
">,,,,>>>>>>'>>>>>>",
"))))))))))))))))))",
"!!!!!!!!!!!!!!!!!!",
"~~~~~~~~~~~~~~~~~~",
"{{{{]]]]]]]]]]]]]]",
"^^^^//////////////",
"(((((((((_________",
":::::::::::::::<<<",
"[[[[[[[[[[[[[[[[[[",
"}}}}}}}}}}}}}}}}}}",
"||||||||||||||||||",
"111111111111111111"};
