/* XPM */
static char * toolbar_focused_xpm[] = {
"21 21 53 1",
" 	c None",
".	c #808080",
"+	c #7F7F7F",
"@	c #7E7E7E",
"#	c #7D7D7D",
"$	c #7C7C7C",
"%	c #7B7B7B",
"&	c #7A7A7A",
"*	c #797979",
"=	c #787878",
"-	c #777777",
";	c #767676",
">	c #757575",
",	c #747474",
"'	c #737373",
")	c #727272",
"!	c #717171",
"~	c #707070",
"{	c #6F6F6F",
"]	c #6E6E6E",
"^	c #6C6C6C",
"/	c #6B6B6B",
"(	c #6A6A6A",
"_	c #696969",
":	c #686868",
"<	c #676767",
"[	c #666666",
"}	c #656565",
"|	c #646464",
"1	c #636363",
"2	c #626262",
"3	c #616161",
"4	c #606060",
"5	c #5F5F5F",
"6	c #5E5E5E",
"7	c #131313",
"8	c #141414",
"9	c #151515",
"0	c #161616",
"a	c #171717",
"b	c #181818",
"c	c #191919",
"d	c #0A0A0A",
"e	c #0B0B0B",
"f	c #0C0C0C",
"g	c #0D0D0D",
"h	c #0E0E0E",
"i	c #010101",
"j	c #020202",
"k	c #030303",
"l	c #040404",
"m	c #050505",
"n	c #000000",
"......+++@@@####$$$%%",
"&&&***===---;;;>>>,,,",
"'')))!!!~~~~{{{]]]]]]",
"^^///(((___::::::<<<[",
"}||||1112222223334445",
"666666666666666666666",
"666666666666666666666",
"666666666666666666666",
"666666666666666666666",
"788889990000aaaabbbbc",
"ddeeeefffgggggggghhhh",
"iiiiiiijjjjkkkllllmmm",
"nnnnnnnnnnnnnnnnnnnnn",
"nnnnnnnnnnnnnnnnnnnnn",
"nnnnnnnnnnnnnnnnnnnnn",
"nnnnnnnnnnnnnnnnnnnnn",
"nnnnnnnnnnnnnnnnnnnnn",
"nnnnnnnnnnnnnnnnnnnnn",
"nnnnnnnnnnnnnnnnnnnnn",
"nnnnnnnnnnnnnnnnnnnnn",
"nnnnnnnnnnnnnnnnnnnnn"};
