/* XPM */
static char * toolbar_xpm[] = {
"21 21 44 1",
" 	c None",
".	c #979797",
"+	c #969696",
"@	c #959595",
"#	c #8E8E8E",
"$	c #8D8D8D",
"%	c #8C8C8C",
"&	c #8B8B8B",
"*	c #848484",
"=	c #838383",
"-	c #828282",
";	c #7A7A7A",
">	c #7B7B7B",
",	c #797979",
"'	c #717171",
")	c #707070",
"!	c #696969",
"~	c #686868",
"{	c #5E5E5E",
"]	c #5F5F5F",
"^	c #545454",
"/	c #575757",
"(	c #565656",
"_	c #454545",
":	c #444444",
"<	c #434343",
"[	c #424242",
"}	c #0A0A0A",
"|	c #010101",
"1	c #020202",
"2	c #060606",
"3	c #070707",
"4	c #0B0B0B",
"5	c #0C0C0C",
"6	c #111111",
"7	c #121212",
"8	c #161616",
"9	c #171717",
"0	c #1C1C1C",
"a	c #1D1D1D",
"b	c #222222",
"c	c #292929",
"d	c #2A2A2A",
"e	c #191919",
".....................",
".......+++++++++@@+@@",
"####$$$$%%%%%%%%%%%&&",
"****====--=---=--=---",
";>;;;>>;;;;;;;;;;;,,,",
"''''''')))'''))))))))",
"!!!!!!!!!!!!!!~~~~~~~",
"{]]]]]{{{{{{{{{{{{{{{",
"^//////(////(((((((((",
"_::::::<<<<<<<<<<[[[[",
"}}}}}}}}}}}}}}}}}}}}}",
"||||||||||11111111111",
"222223333333333333333",
"444455555555555555555",
"666666666677777777777",
"888888888888888889999",
"0000000000000000aaaaa",
"bbbbbbbbbbbbbbbbbbbbb",
"cccccccccccdddddddddd",
"eeeeeeeeeeeeeeeeeeeee",
"eeeeeeeeeeeeeeeeeeeee"};
